<mxfile host="www.draw.io" modified="2019-10-14T13:02:40.365Z" agent="Mozilla/5.0 (Windows NT 10.0; Win64; x64) AppleWebKit/537.36 (KHTML, like Gecko) Chrome/77.0.3865.120 Safari/537.36" etag="tDmpLkABGPiBT8zFd_n6" version="12.1.1" type="github" pages="1">
  <diagram id="6a731a19-8d31-9384-78a2-239565b7b9f0" name="Page-1">
    <mxGraphModel dx="589" dy="323" grid="1" gridSize="10" guides="1" tooltips="1" connect="1" arrows="1" fold="1" page="1" pageScale="1" pageWidth="3300" pageHeight="2339" background="#ffffff" math="0" shadow="0">
      <root>
        <mxCell id="0"/>
        <mxCell id="1" parent="0"/>
        <mxCell id="ioWVT2xj_eLtzuSqU4vY-58" value="" style="edgeStyle=orthogonalEdgeStyle;rounded=0;orthogonalLoop=1;jettySize=auto;html=1;" edge="1" parent="1" source="ioWVT2xj_eLtzuSqU4vY-56" target="ioWVT2xj_eLtzuSqU4vY-57">
          <mxGeometry relative="1" as="geometry"/>
        </mxCell>
        <mxCell id="ioWVT2xj_eLtzuSqU4vY-56" value="Start" style="rounded=1;whiteSpace=wrap;html=1;" vertex="1" parent="1">
          <mxGeometry x="1590" y="30" width="120" height="60" as="geometry"/>
        </mxCell>
        <mxCell id="ioWVT2xj_eLtzuSqU4vY-57" value="Jenis Pendaki, Beban Pendaki&lt;br&gt;" style="shape=hexagon;perimeter=hexagonPerimeter2;whiteSpace=wrap;html=1;" vertex="1" parent="1">
          <mxGeometry x="1560" y="120" width="180" height="80" as="geometry"/>
        </mxCell>
      </root>
    </mxGraphModel>
  </diagram>
</mxfile>
